<?xml version="1.0" encoding="UTF-8"?><svg id="Layer_2" xmlns="http://www.w3.org/2000/svg" viewBox="0 0 614.04 272.84"><defs><style>.cls-1{fill:#601212;}</style></defs><g id="Layer_3"><g><path d="M85.38,146.37H7.32c-2.58,0-4.44-.58-5.59-1.73-1.15-1.15-1.73-3.01-1.73-5.59V7.32C0,4.75,.57,2.88,1.73,1.73,2.88,.58,4.74,0,7.32,0H72.17c13.28,0,23.11,2.54,29.48,7.62,6.37,5.08,9.55,12.91,9.55,23.48v9.76c0,5.69-.99,10.34-2.95,13.92-1.97,3.59-4.98,6.27-9.05,8.03,8.67,.81,15.11,3.8,19.31,8.95,4.2,5.15,6.3,12.67,6.3,22.57v18.7c0,11.38-3.22,19.79-9.66,25.21-6.44,5.42-16.37,8.13-29.78,8.13ZM45.74,34.56v21.96h17.28c2.57,0,4.5-.68,5.79-2.03,1.29-1.35,1.93-3.39,1.93-6.1v-5.69c0-2.71-.64-4.74-1.93-6.1-1.29-1.35-3.22-2.03-5.79-2.03h-17.28Zm0,53.26v23.99h26.43c2.57,0,4.5-.68,5.79-2.03,1.29-1.35,1.93-3.39,1.93-6.1v-7.93c0-2.71-.64-4.71-1.93-6-1.29-1.29-3.22-1.93-5.79-1.93h-26.43Z"/><path d="M188.86,139.05c0,2.58-.58,4.44-1.73,5.59s-3.02,1.73-5.59,1.73h-29.88c-2.58,0-4.44-.58-5.59-1.73-1.15-1.15-1.73-3.01-1.73-5.59v-53.67c0-4.07,.64-8.74,1.93-14.03,1.29-5.29,3.28-11.45,6-18.5L169.95,6.71c.81-2.3,2.06-4,3.76-5.08,1.69-1.08,3.89-1.63,6.61-1.63h54.69c2.57,0,4.71,.54,6.4,1.63,1.69,1.09,2.95,2.78,3.76,5.08l17.69,46.15c2.71,7.05,4.71,13.21,6,18.5,1.29,5.29,1.93,9.96,1.93,14.03v53.67c0,2.58-.58,4.44-1.73,5.59-1.15,1.15-3.02,1.73-5.59,1.73h-30.7c-2.71,0-4.71-.58-6-1.73-1.29-1.15-1.93-3.01-1.93-5.59v-28.46h-35.98v28.46Zm11.59-96.36l-9.56,30.9h31.92l-9.55-30.9c-.54-1.22-1.12-2.1-1.73-2.64-.61-.54-1.32-.81-2.13-.81h-5.08c-.81,0-1.52,.27-2.13,.81-.61,.54-1.19,1.42-1.73,2.64Z"/></g><g><path d="M60.93,270.67H5.22c-1.84,0-3.17-.41-3.99-1.23-.82-.82-1.23-2.15-1.23-3.99v-94c0-1.84,.41-3.17,1.23-3.99,.82-.82,2.15-1.23,3.99-1.23H51.5c9.48,0,16.49,1.81,21.03,5.44,4.54,3.63,6.82,9.21,6.82,16.75v6.96c0,4.06-.7,7.38-2.1,9.94-1.4,2.56-3.55,4.47-6.46,5.73,6.19,.58,10.78,2.71,13.78,6.38,3,3.68,4.5,9.04,4.5,16.1v13.35c0,8.12-2.3,14.12-6.89,17.99-4.59,3.87-11.68,5.8-21.25,5.8Zm-28.29-79.78v15.67h12.33c1.84,0,3.21-.48,4.13-1.45,.92-.97,1.38-2.42,1.38-4.35v-4.06c0-1.93-.46-3.38-1.38-4.35-.92-.97-2.3-1.45-4.13-1.45h-12.33Zm0,38.01v17.12h18.86c1.84,0,3.21-.48,4.13-1.45,.92-.97,1.38-2.42,1.38-4.35v-5.66c0-1.93-.46-3.36-1.38-4.28-.92-.92-2.3-1.38-4.13-1.38h-18.86Z"/><path d="M194.09,243.25c0,4.45-.65,8.49-1.96,12.11-1.31,3.63-3.63,6.72-6.96,9.28-3.34,2.56-7.91,4.57-13.71,6.02-5.8,1.45-13.2,2.18-22.19,2.18s-16.39-.73-22.19-2.18-10.37-3.46-13.71-6.02c-3.34-2.56-5.66-5.66-6.96-9.28-1.31-3.63-1.96-7.66-1.96-12.11v-71.81c0-1.84,.41-3.17,1.23-3.99,.82-.82,2.15-1.23,3.99-1.23h22.77c1.84,0,3.17,.41,3.99,1.23,.82,.82,1.23,2.15,1.23,3.99v66.15c0,1.94,.73,3.55,2.18,4.86,1.45,1.31,4.69,1.96,9.72,1.96s8.41-.65,9.86-1.96c1.45-1.31,2.18-2.92,2.18-4.86v-66.15c0-1.84,.41-3.17,1.23-3.99s2.15-1.23,3.99-1.23h22.05c1.84,0,3.17,.41,3.99,1.23,.82,.82,1.23,2.15,1.23,3.99v71.81Z"/><path d="M261.83,270.67h-45.84c-1.84,0-3.17-.41-3.99-1.23-.82-.82-1.23-2.15-1.23-3.99v-16.97c0-1.84,.41-3.17,1.23-3.99,.82-.82,2.15-1.23,3.99-1.23h39.02c1.26,0,2.2-.41,2.83-1.23,.63-.82,.94-1.81,.94-2.97,0-1.64-.31-2.85-.94-3.63-.63-.77-1.57-1.21-2.83-1.31l-21.76-3.05c-6.77-.97-12.21-3.19-16.32-6.67-4.11-3.48-6.16-9.28-6.16-17.41v-15.23c0-8.22,2.66-14.53,7.98-18.93,5.32-4.4,12.67-6.6,22.05-6.6h40.62c1.84,0,3.17,.41,3.99,1.23,.82,.82,1.23,2.15,1.23,3.99v17.26c0,1.84-.41,3.17-1.23,3.99s-2.15,1.23-3.99,1.23h-33.8c-1.26,0-2.23,.41-2.9,1.23-.68,.82-1.02,1.86-1.02,3.12s.34,2.32,1.02,3.19c.68,.87,1.64,1.36,2.9,1.45l21.61,2.9c6.77,.97,12.23,3.19,16.39,6.67,4.16,3.48,6.24,9.28,6.24,17.41v15.23c0,8.22-2.68,14.53-8.05,18.93-5.37,4.4-12.69,6.6-21.98,6.6Z"/><path d="M335.38,270.67h-22.48c-1.84,0-3.17-.41-3.99-1.23-.82-.82-1.23-2.15-1.23-3.99v-94c0-1.84,.41-3.17,1.23-3.99s2.15-1.23,3.99-1.23h22.48c1.84,0,3.17,.41,3.99,1.23,.82,.82,1.23,2.15,1.23,3.99v31.48h24.23v-31.48c0-1.84,.41-3.17,1.23-3.99,.82-.82,2.15-1.23,3.99-1.23h22.48c1.84,0,3.17,.41,3.99,1.23,.82,.82,1.23,2.15,1.23,3.99v94c0,1.84-.41,3.17-1.23,3.99s-2.15,1.23-3.99,1.23h-22.48c-1.84,0-3.17-.41-3.99-1.23-.82-.82-1.23-2.15-1.23-3.99v-32.2h-24.23v32.2c0,1.84-.41,3.17-1.23,3.99s-2.15,1.23-3.99,1.23Z"/><path d="M445.48,270.67h-22.48c-1.84,0-3.17-.41-3.99-1.23-.82-.82-1.23-2.15-1.23-3.99v-94c0-1.84,.41-3.17,1.23-3.99s2.15-1.23,3.99-1.23h22.48c1.84,0,3.17,.41,3.99,1.23,.82,.82,1.23,2.15,1.23,3.99v33.36h5.8l14.94-33.8c.68-1.74,1.6-2.97,2.76-3.7,1.16-.72,2.66-1.09,4.5-1.09h22.34c1.64,0,2.76,.41,3.34,1.23,.58,.82,.53,2.01-.15,3.55l-14.8,33.8c5.42,.29,9.74,2.2,12.98,5.73,3.24,3.53,4.86,8.2,4.86,14v40.91c0,1.84-.41,3.17-1.23,3.99-.82,.82-2.15,1.23-3.99,1.23h-22.34c-1.84,0-3.17-.41-3.99-1.23-.82-.82-1.23-2.15-1.23-3.99v-28.29c0-1.55-.39-2.76-1.16-3.63-.78-.87-1.94-1.31-3.48-1.31h-19.15v33.22c0,1.84-.41,3.17-1.23,3.99s-2.15,1.23-3.99,1.23Z"/><path d="M555.58,265.44c0,1.84-.41,3.17-1.23,3.99-.82,.82-2.15,1.23-3.99,1.23h-21.32c-1.84,0-3.17-.41-3.99-1.23-.82-.82-1.23-2.15-1.23-3.99v-38.3c0-2.9,.46-6.24,1.38-10.01,.92-3.77,2.34-8.17,4.28-13.2l12.62-32.93c.58-1.64,1.47-2.85,2.68-3.63,1.21-.77,2.78-1.16,4.71-1.16h39.02c1.84,0,3.36,.39,4.57,1.16,1.21,.77,2.1,1.98,2.68,3.63l12.62,32.93c1.93,5.03,3.36,9.43,4.28,13.2,.92,3.77,1.38,7.11,1.38,10.01v38.3c0,1.84-.41,3.17-1.23,3.99-.82,.82-2.15,1.23-3.99,1.23h-21.9c-1.94,0-3.36-.41-4.28-1.23-.92-.82-1.38-2.15-1.38-3.99v-20.31h-25.68v20.31Zm8.27-68.76l-6.82,22.05h22.77l-6.82-22.05c-.39-.87-.8-1.5-1.23-1.89-.43-.39-.94-.58-1.52-.58h-3.63c-.58,0-1.09,.2-1.52,.58-.43,.39-.85,1.02-1.23,1.89Z"/></g></g><g id="Layer_4"><g><g><path class="cls-1" d="M510.89,8.93c.15,.32,.3,.64,.43,.96l-.6-1.42c.59,1.44,.98,2.93,1.2,4.46l-.21-1.58c.2,1.61,.2,3.22-.01,4.83l.21-1.58c-.23,1.57-.66,3.07-1.27,4.53l.6-1.42c-1.77,4.18-4.53,7.96-5.61,12.42-.69,2.85-.75,5.84,.04,8.69,.69,2.49,1.96,4.8,3.32,6.98,1.32,2.12,2.61,4.21,3.59,6.51l-.6-1.42c1.16,2.76,1.94,5.64,2.35,8.6l-.21-1.58c.38,2.89,.39,5.81,.01,8.71l.21-1.58c-.03,.21-.06,.42-.09,.63-.25,.79-.28,1.58-.11,2.37,.04,.79,.27,1.53,.71,2.21,.72,1.23,2.13,2.41,3.55,2.73,1.52,.35,3.23,.27,4.58-.6,1.21-.78,2.51-2.06,2.73-3.55,.37-2.47,.64-4.92,.57-7.42s-.39-4.97-.89-7.39c-.9-4.4-2.69-8.66-5.05-12.47-1.17-1.89-2.42-3.74-3.29-5.8l.6,1.42c-.38-.94-.67-1.89-.82-2.89l.21,1.58c-.13-.96-.12-1.9,0-2.86l-.21,1.58c.2-1.38,.62-2.7,1.16-3.98l-.6,1.42c1.78-4.17,4.48-7.95,5.61-12.4,.64-2.52,.92-5.26,.64-7.85-.16-1.5-.36-3.02-.77-4.47s-1.04-2.96-1.72-4.37c-.62-1.28-2.22-2.37-3.55-2.73-1.42-.39-3.32-.21-4.58,.6s-2.39,2.04-2.73,3.55c-.37,1.63-.13,3.07,.6,4.58h0Z"/><path class="cls-1" d="M541.72,8.93c.15,.32,.3,.64,.43,.96l-.6-1.42c.59,1.44,.98,2.93,1.2,4.46l-.21-1.58c.2,1.61,.2,3.22-.01,4.83l.21-1.58c-.23,1.57-.66,3.07-1.27,4.53l.6-1.42c-1.77,4.18-4.53,7.96-5.61,12.42-.69,2.85-.75,5.84,.04,8.69,.69,2.49,1.96,4.8,3.32,6.98,1.32,2.12,2.61,4.21,3.59,6.51l-.6-1.42c1.16,2.76,1.94,5.64,2.35,8.6l-.21-1.58c.38,2.89,.39,5.81,.01,8.71l.21-1.58c-.03,.21-.06,.42-.09,.63-.25,.79-.28,1.58-.11,2.37,.04,.79,.27,1.53,.71,2.21,.72,1.23,2.13,2.41,3.55,2.73,1.52,.35,3.23,.27,4.58-.6,1.21-.78,2.51-2.06,2.73-3.55,.37-2.47,.64-4.92,.57-7.42s-.39-4.97-.89-7.39c-.9-4.4-2.69-8.66-5.05-12.47-1.17-1.89-2.42-3.74-3.29-5.8l.6,1.42c-.38-.94-.67-1.89-.82-2.89l.21,1.58c-.13-.96-.12-1.9,0-2.86l-.21,1.58c.2-1.38,.62-2.7,1.16-3.98l-.6,1.42c1.78-4.17,4.48-7.95,5.61-12.4,.64-2.52,.92-5.26,.64-7.85-.16-1.5-.36-3.02-.77-4.47s-1.04-2.96-1.72-4.37c-.62-1.28-2.22-2.37-3.55-2.73-1.42-.39-3.32-.21-4.58,.6s-2.39,2.04-2.73,3.55c-.37,1.63-.13,3.07,.6,4.58h0Z"/></g><path class="cls-1" d="M610.72,87.03c0,14.7-7.43,42.74-19.62,52.79v5.32h-110.36v-5.43c-12.51-10.34-20.03-38.83-19.6-53.91,.05-1.58,.18-3.15,.39-4.69h148.78c.27,1.95,.41,3.92,.41,5.92Z"/><path class="cls-1" d="M453.35,131.51c-2.28-7.16-5.61-13.85-9.8-19.89-.83-1.2-1.69-2.37-2.6-3.52-7.79-11.28-12.36-24.96-12.36-39.71,0-3.23,.22-6.41,.64-9.52,.34-1.53,.61-3.1,.8-4.69,.24-1.92,.35-3.88,.35-5.87,0-26.69-21.64-48.32-48.32-48.32s-48.32,21.64-48.32,48.32c0,1.98,.12,3.93,.35,5.85,.19,1.59,.46,3.16,.81,4.7,.42,3.11,.64,6.29,.64,9.52,0,14.75-4.57,28.43-12.36,39.71-.9,1.15-1.77,2.32-2.6,3.52-6.99,10.06-11.57,21.92-12.9,34.75h148.78c-.53-5.13-1.58-10.09-3.1-14.86Zm-71.29-50.41c-15.26,0-27.91-15.21-30.31-30.06-.24-1.51,.64-2.97,2.08-3.5l3.64-1.35c9.42-3.5,17.6-10.91,21.74-18.86,1.21-2.33,4.52-2.33,5.73,0,4.13,7.95,12.31,15.35,21.74,18.86l3.64,1.35c1.43,.53,2.32,2,2.08,3.5-2.4,14.85-15.05,30.06-30.31,30.06Z"/></g></g></svg>